<svg width="36" height="36" viewBox="0 0 36 36" fill="none" xmlns="http://www.w3.org/2000/svg">
<path d="M24 18H28C28 15.3478 26.9464 12.8043 25.0711 10.9289C23.1957 9.05357 20.6522 8 18 8V12C19.5913 12 21.1174 12.6321 22.2426 13.7574C23.3679 14.8826 24 16.4087 24 18ZM32 18H36C36 8 27.94 0 18 0V4C25.72 4 32 10.26 32 18ZM34 25C31.5 25 29.1 24.6 26.86 23.86C26.16 23.64 25.38 23.8 24.82 24.36L20.42 28.76C14.7466 25.8666 10.1334 21.2534 7.24 15.58L11.64 11.18C12.2 10.62 12.36 9.84 12.14 9.14C11.3813 6.83611 10.9964 4.42559 11 2C11 1.46957 10.7893 0.960859 10.4142 0.585786C10.0391 0.210714 9.53043 0 9 0H2C1.46957 0 0.960859 0.210714 0.585786 0.585786C0.210714 0.960859 0 1.46957 0 2C0 11.0174 3.58213 19.6654 9.95837 26.0416C16.3346 32.4179 24.9826 36 34 36C34.5304 36 35.0391 35.7893 35.4142 35.4142C35.7893 35.0391 36 34.5304 36 34V27C36 26.4696 35.7893 25.9609 35.4142 25.5858C35.0391 25.2107 34.5304 25 34 25Z" fill="#422E32"/>
</svg>
